<?xml version="1.0" encoding="utf-8"?>
<!-- Generator: Adobe Illustrator 16.0.0, SVG Export Plug-In . SVG Version: 6.00 Build 0)  -->
<!DOCTYPE svg PUBLIC "-//W3C//DTD SVG 1.1//EN" "http://www.w3.org/Graphics/SVG/1.1/DTD/svg11.dtd">
<svg version="1.1" id="Слой_1" xmlns="http://www.w3.org/2000/svg" xmlns:xlink="http://www.w3.org/1999/xlink" x="0px" y="0px"
	 width="100px" height="100px" viewBox="0 0 100 100" enable-background="new 0 0 100 100" xml:space="preserve">
<g>
	<g>
		<path fill="#FFFFFF" d="M33.932,86.571H9.452c-5.032,0-9.126-4.677-9.126-10.425L0,36.496c0-5.764,3.993-10.44,8.9-10.44h54.243
			c3.087,0,5.942,1.89,7.551,4.909h0.314c4.97,0,8.862,2.964,8.862,6.747v11.655c0,3.662-3.65,6.555-8.396,6.734
			c-1.283,3.994-4.6,6.759-8.332,6.759H43.058v13.287C43.058,81.895,38.964,86.571,33.932,86.571z M8.9,29.727
			c-2.883,0-5.229,3.03-5.229,6.754l0.325,39.65c0,3.74,2.448,6.77,5.456,6.77h24.48c3.008,0,5.456-3.029,5.456-6.754V61.023
			c0-1.014,0.822-1.835,1.835-1.835h21.921c2.405,0,4.547-2.203,5.093-5.239c0.157-0.874,0.918-1.51,1.807-1.51h0.966
			c3.06,0,5.191-1.619,5.191-3.073V37.712c0-1.455-2.132-3.076-5.191-3.076h-1.487c-0.755,0-1.435-0.463-1.71-1.167
			c-0.89-2.273-2.722-3.743-4.668-3.743H8.9z"/>
	</g>
	<g>
		<path fill="#FFFFFF" d="M28.791,77.041H14.597c-3.346,0-6.068-2.417-6.068-5.387v-8.113c0-2.972,2.723-5.389,6.068-5.389h14.194
			c3.344,0,6.064,2.417,6.064,5.389v8.113C34.855,74.624,32.135,77.041,28.791,77.041z M14.597,61.823
			c-1.299,0-2.397,0.786-2.397,1.718v8.113c0,0.931,1.098,1.717,2.397,1.717h14.194c1.297,0,2.394-0.786,2.394-1.717v-8.113
			c0-0.932-1.096-1.718-2.394-1.718H14.597z"/>
	</g>
	<g>
		<path fill="#FFFFFF" d="M28.38,38.78H14.394c-1.014,0-1.836-0.822-1.836-1.835c0-1.014,0.822-1.835,1.836-1.835H28.38
			c1.014,0,1.835,0.821,1.835,1.835C30.215,37.958,29.394,38.78,28.38,38.78z"/>
	</g>
	<g>
		<path fill="#FFFFFF" d="M98.164,70.846c-1.014,0-1.835-0.822-1.835-1.836V15.264c0-1.014,0.821-1.835,1.835-1.835
			c1.015,0,1.836,0.821,1.836,1.835V69.01C100,70.023,99.179,70.846,98.164,70.846z"/>
	</g>
	<g>
		<circle fill="#FFFFFF" cx="88.693" cy="32.005" r="2.809"/>
	</g>
	<g>
		<circle fill="#FFFFFF" cx="82.085" cy="24.956" r="2.808"/>
	</g>
	<g>
		<path fill="#FFFFFF" d="M97.063,46.027H79.8c-1.015,0-1.836-0.822-1.836-1.836c0-1.014,0.821-1.835,1.836-1.835h17.263
			c1.014,0,1.836,0.821,1.836,1.835C98.898,45.205,98.076,46.027,97.063,46.027z"/>
	</g>
	<g>
		<path fill="#FFFFFF" d="M82.85,62.073c-0.419,0-0.841-0.144-1.186-0.437c-0.773-0.655-0.868-1.813-0.212-2.587l7.713-9.091
			c0.656-0.773,1.814-0.869,2.587-0.212c0.773,0.656,0.868,1.814,0.212,2.586l-7.713,9.092C83.888,61.853,83.37,62.073,82.85,62.073
			z"/>
	</g>
</g>
</svg>
