<?xml version="1.0" encoding="utf-8"?>
<!-- Generator: Adobe Illustrator 16.0.0, SVG Export Plug-In . SVG Version: 6.00 Build 0)  -->
<!DOCTYPE svg PUBLIC "-//W3C//DTD SVG 1.1//EN" "http://www.w3.org/Graphics/SVG/1.1/DTD/svg11.dtd">
<svg version="1.1" id="Слой_1" xmlns="http://www.w3.org/2000/svg" xmlns:xlink="http://www.w3.org/1999/xlink" x="0px" y="0px"
	 width="100px" height="100px" viewBox="0 0 100 100" enable-background="new 0 0 100 100" xml:space="preserve">
<g>
	<g>
		<path fill="#FFFFFF" stroke="#FFFFFF" stroke-width="0.25" stroke-miterlimit="10" d="M77.452,99.5H22.549
			c-1.807,0-3.275-1.535-3.275-3.423V3.921c0-1.887,1.468-3.421,3.275-3.421h54.903c1.806,0,3.274,1.535,3.274,3.421v92.156
			C80.727,97.965,79.258,99.5,77.452,99.5z M22.882,95.89h54.237V4.108H22.882V95.89z"/>
	</g>
	<g>
		<path fill="#FFFFFF" stroke="#FFFFFF" stroke-width="0.25" stroke-miterlimit="10" d="M69.043,58.361H30.958
			c-0.997,0-1.804-0.809-1.804-1.807V29.031c0-11.495,9.352-20.847,20.847-20.847c11.494,0,20.846,9.352,20.846,20.847v27.523
			C70.847,57.553,70.04,58.361,69.043,58.361z M32.763,54.751h34.475v-25.72c0-9.505-7.732-17.238-17.237-17.238
			c-9.504,0-17.238,7.733-17.238,17.238V54.751z"/>
	</g>
	<g>
		<path fill="#FFFFFF" stroke="#FFFFFF" stroke-width="0.25" stroke-miterlimit="10" d="M50,57.642
			c-0.997,0-1.804-0.807-1.804-1.804V9.989c0-0.997,0.808-1.805,1.804-1.805s1.804,0.808,1.804,1.805v45.849
			C51.804,56.835,50.997,57.642,50,57.642z"/>
	</g>
	<g>
		<path fill="#FFFFFF" stroke="#FFFFFF" stroke-width="0.25" stroke-miterlimit="10" d="M68.863,30.156H31.138
			c-0.997,0-1.805-0.808-1.805-1.804c0-0.997,0.808-1.805,1.805-1.805h37.726c0.997,0,1.804,0.808,1.804,1.805
			C70.667,29.349,69.86,30.156,68.863,30.156z"/>
	</g>
	<g>
		<path fill="#FFFFFF" stroke="#FFFFFF" stroke-width="0.25" stroke-miterlimit="10" d="M68.863,43.81H31.138
			c-0.997,0-1.805-0.808-1.805-1.805c0-0.996,0.808-1.804,1.805-1.804h37.726c0.997,0,1.804,0.808,1.804,1.804
			C70.667,43.002,69.86,43.81,68.863,43.81z"/>
	</g>
	<g>
		<circle fill="#FFFFFF" stroke="#FFFFFF" stroke-width="0.25" stroke-miterlimit="10" cx="28.473" cy="64.461" r="3.006"/>
	</g>
	<g>
		<path fill="#FFFFFF" stroke="#FFFFFF" stroke-width="0.25" stroke-miterlimit="10" d="M69.043,90.447H30.958
			c-0.997,0-1.804-0.809-1.804-1.805V76.62c0-5.771,8.962-10.121,20.847-10.121c11.884,0,20.846,4.351,20.846,10.121v12.022
			C70.847,89.639,70.04,90.447,69.043,90.447z M32.763,86.837h34.475V76.62c0-3.073-7.372-6.513-17.237-6.513
			c-9.866,0-17.238,3.439-17.238,6.513V86.837z"/>
	</g>
</g>
</svg>
